<svg xmlns="http://www.w3.org/2000/svg" width="32" height="32" viewBox="0 140 624 300" fill="#a855f7">
  <path d="M512.046 356.974C508.673 357.508 505.843 359.36 502.88 360.845C496.207 364.187 489.894 363.186 484.015 359.15C474.073 352.325 465.843 343.526 457.168 335.257C454.322 332.544 453.979 329.01 455.565 325.545C459.932 316.005 464.259 306.483 466.524 296.142C467.334 292.445 470.363 291.149 473.891 291.867C477.861 292.675 479.163 295.754 478.888 299.403C478.631 302.817 477.916 306.196 477.316 310.164C480.945 309.134 483.225 307.157 485.378 305.189C494.216 297.106 504.42 291.297 515.267 286.386C535.962 277.016 553.975 263.611 570.852 248.611C576.355 243.721 580.748 237.825 584.725 231.624C591.026 221.801 590.235 212.415 582.228 203.877C576.238 197.491 569.195 192.486 561.468 188.437C553.644 184.338 546.382 179.783 539.99 173.327C529.232 162.462 514.7 158.594 499.953 167.589C493.605 171.461 486.783 173.732 479.346 174.636C467.034 176.133 455.378 180.19 443.987 184.931C424.838 192.9 404.71 197.459 384.656 202.31C355.076 209.465 327.741 221.934 304.315 241.153C274.452 265.654 240.284 278.507 202.736 284.403C176.288 288.556 149.729 292.057 123.441 297.213C121.827 297.529 120.164 297.642 118.314 298.952C126.075 301.45 133.797 302.357 141.416 303.511C172.79 308.264 204.38 309.506 236.063 308.622C246.717 308.325 257.299 307.123 267.784 305.138C274.4 303.886 277.062 305.428 280.368 311.213C290.256 328.512 305.927 336.714 325.175 338.571C331.133 339.146 337.11 339.341 343.008 340.538C349.882 341.933 352.448 344.385 351.649 349.133C350.903 353.574 347.608 354.812 340.856 353.876C321.69 351.218 302.675 351.668 284.002 357.342C280.165 358.508 276.457 359.98 273.141 362.305C267.391 366.336 266.547 371.704 270.895 377.261C274.594 381.987 279.593 385.026 284.979 387.348C292.622 390.644 300.335 393.793 308.111 396.76C324.085 402.856 338.746 411.377 353.033 420.625C355.862 422.456 357.811 424.756 357.337 428.425C356.835 432.306 353 434.8 349.345 433.455C347.796 432.885 346.269 432.124 344.909 431.193C327.029 418.947 307.153 410.835 287.128 402.96C277.029 398.989 267.186 394.433 260.286 385.408C250.738 372.918 253.971 357.279 267.642 349.605C274.538 345.733 282.107 343.78 291.054 341.286C284.548 336.841 279.494 332.414 274.322 328.137C272.407 326.553 270.517 328.539 268.837 329.349C252.597 337.178 235.91 343.967 218.416 348.258C186.888 355.992 155.308 354.117 123.956 346.867C97.184 340.675 70.917 332.694 45.071 323.36C38.487 320.983 31.963 318.394 26.386 314.004C15.417 305.37 16.146 294.304 28.399 287.788C53.028 274.691 79.247 265.335 105.307 255.625C123.886 248.702 142.64 242.536 162.341 239.401C187.913 235.333 213.264 234.445 238.62 241.013C248.789 243.647 259.359 243.89 269.864 244.077C274.57 244.16 278.59 242.773 282.398 240.005C295.6 230.408 308.7 220.67 322.859 212.448C343.968 200.191 366.856 192.741 390.4 187.059C409.524 182.444 428.3 176.759 446.576 169.476C457.146 165.263 468.073 162.399 479.316 160.879C483.566 160.304 487.349 158.928 490.992 156.828C502.641 150.11 514.836 146.371 528.228 150.865C537.046 153.824 544.859 158.587 551.16 165.499C554.254 168.893 557.781 171.441 561.926 173.381C572.567 178.363 582.181 184.939 590.61 193.118C603.995 206.106 606.08 222.603 596.573 238.565C588.395 252.296 576.576 262.458 564.145 272.124C548.4 284.367 531.272 294.223 513.273 302.658C509.634 304.363 506.095 306.229 503.02 308.813C493.44 316.863 483.278 324.049 471.234 330.012C478.378 336.35 484.122 343.205 491.5 348.378C494.161 350.243 496.563 349.362 498.974 348.071C502.347 346.265 505.555 344.104 509.042 342.573C514.313 340.26 519.401 341.52 520.974 345.1C522.655 348.928 520.331 352.612 514.58 355.29C513.835 355.637 513.151 356.115 512.224 356.767C512.01 357.002 512.046 356.974 512.046 356.974ZM91.092 307.782C87.279 306.656 83.554 305.21 83.364 300.497C83.168 295.638 86.68 293.521 90.652 292.14C95.209 290.556 99.767 288.918 104.43 287.706C130.415 280.952 157.013 277.609 183.508 273.718C204.774 270.594 225.91 266.912 246.359 260.056C247.946 259.523 249.884 259.466 250.988 257.104C244.924 255.997 239.159 255.29 233.578 253.865C210.365 247.939 187.136 248.803 163.774 252.877C142.664 256.559 122.538 263.366 102.651 271.097C80.772 279.602 58.628 287.46 37.66 298.145C35.95 299.016 33.876 299.465 33.019 301.51C35.701 304.465 36.548 304.977 41.691 307.155C68.922 318.689 97.289 326.6 125.979 333.426C158.576 341.181 191.167 342.49 223.65 332.664C233.385 329.719 242.851 326.104 253.477 321.543C249.096 321.543 246.263 321.387 243.452 321.566C212.788 323.522 182.196 322.582 151.736 318.742C131.612 316.206 111.752 311.999 91.092 307.782Z"/>
  <path d="M530.039 372.686C532.665 373.465 534.961 373.987 537.088 374.901C540.594 376.408 542.937 381.052 541.471 383.881C539.677 387.345 536.582 389.102 532.719 387.809C525.705 385.461 518.647 383.755 511.188 384.392C507.374 384.717 503.527 384.839 499.753 385.422C487.628 387.294 476.707 383.448 466.088 378.413C452.152 371.804 439.492 363.215 428.125 352.788C425.797 350.652 423.696 349.991 420.508 350.89C413.956 352.736 407.244 354.015 400.601 355.538C398.629 355.99 396.701 356.341 396.596 359.096C396.131 371.29 387.557 377.324 378.366 382.866C376.981 383.702 375.148 383.754 373.93 385.49C375.869 387.514 378.719 387.52 380.958 388.73C384.972 390.898 386.394 394.003 384.804 397.753C383.118 401.729 380.005 401.774 376.46 400.786C361.569 396.634 346.908 391.569 331.634 388.929C324.435 387.685 317.079 387.352 309.872 386.141C306.159 385.517 302.049 384.42 302.169 379.228C302.286 374.137 305.943 371.337 311.531 372.367C322.689 374.424 333.871 375.99 345.259 375.708C354.148 375.488 362.839 374.34 371.062 370.725C374.134 369.374 376.974 367.642 379.439 365.353C382.891 362.147 384.262 358.472 382.775 353.678C378.951 341.357 370.546 332.426 361.201 324.261C350.768 315.145 338.568 309.096 325.47 304.77C321.941 303.605 318.837 301.778 319.169 297.514C319.464 293.733 321.631 291.524 325.782 291.575C331.492 291.645 336.48 294.179 341.433 296.379C362.148 305.584 379.694 318.593 390.639 339.114C391.902 341.482 393.458 343.302 396.495 342.688C403.34 341.303 410.227 340.077 416.782 337.549C418.227 336.992 419.637 336.311 419.395 334.397C417.891 322.535 423.916 312.833 428.573 302.781C430.316 299.019 432.566 295.471 434.808 291.967C437.553 287.677 441.504 286.475 444.898 288.617C447.772 290.43 448.576 295.021 446.351 298.987C443.42 304.21 439.938 309.131 437.699 314.732C435.603 319.977 433.31 325.133 433.095 330.965C432.924 335.596 434.157 339.576 437.508 342.716C450.912 355.277 465.996 365.194 483.512 371.039C490.002 373.205 496.723 371.998 503.336 371.313C512.177 370.397 520.955 370.374 530.039 372.686Z"/>
  <path d="M541.21 193.83C549.279 204.386 550.622 215.431 544.309 226.76C538.289 237.559 528.511 242.028 516.306 241.337C503.688 240.623 492.881 230.449 490.613 217.232C488.389 204.277 494.87 192.12 506.676 187.1C519.63 181.59 530.732 183.684 541.21 193.83ZM507.51 202.345C502.194 209.975 502.143 217.025 507.362 222.834C512.04 228.042 519.377 229.477 525.11 226.202C519.935 224.028 515.076 221.715 512.436 216.268C509.905 211.043 509.094 205.767 511.041 199.26C509.451 200.616 508.708 201.25 507.51 202.345ZM528.219 201.425C525.164 201.227 524.143 203.535 523.651 205.741C523.042 208.473 524.605 210.564 527.077 211.661C529.178 212.593 531.864 213.675 533.606 211.894C535.544 209.913 533.483 207.6 532.562 205.576C531.795 203.889 530.52 202.584 528.219 201.425Z"/>
  <path d="M343.906 401.374C345.918 396.995 349.323 396.052 353.223 396.88C367.321 399.873 380.921 404.061 392.078 413.852C395.701 417.031 396.76 420.832 394.616 423.806C392.339 426.964 388.878 427.248 384.548 424.153C374.62 417.056 363.41 413.085 351.724 410.149C347.366 409.054 343.176 407.65 343.906 401.374Z"/>
  <path d="M511.994 357.019C521.022 353.224 530.66 352.755 540.251 352.102C541.875 351.992 543.556 352.343 545.179 352.648C549.192 353.402 550.61 356.248 550.395 359.924C550.17 363.758 547.637 365.538 544.013 365.42C535.802 365.151 527.835 366.04 520.054 368.901C517.019 370.017 513.815 369.724 511.453 366.812C508.887 363.649 509.821 360.647 511.873 357.306C512.046 356.974 512.01 357.002 511.994 357.019Z"/>
</svg>
